<svg version="1.1" xmlns="http://www.w3.org/2000/svg" xmlns:xlink="http://www.w3.org/1999/xlink" width="512px" height="512px" viewBox="0,0,256,256"><g fill="#bfbfbf" fill-rule="nonzero" stroke="none" stroke-width="1" stroke-linecap="butt" stroke-linejoin="miter" stroke-miterlimit="10" stroke-dasharray="" stroke-dashoffset="0" font-family="none" font-weight="none" font-size="none" text-anchor="none" style="mix-blend-mode: normal"><g transform="scale(0.5,0.5)"><path d="M256,352c-16.53,0 -33.06,-5.422 -47.16,-16.41l-208.84,-162.39v226.8c0,26.5 21.49,48 48,48h416c26.51,0 48,-21.49 48,-48v-226.8l-208.8,162.5c-14.1,10.9 -30.7,16.3 -47.2,16.3zM16.29,145.3l212.2,165.1c16.19,12.6 38.87,12.6 55.06,0l212.2,-165.1c9.35,-8 16.25,-20.3 16.25,-33.3c0,-26.51 -21.5,-48 -48,-48h-416c-26.51,0 -48,21.49 -48,48c0,13 6.01,25.3 16.29,33.3z"></path></g></g></svg>