<?xml version="1.0" ?><svg id="Layer_1" style="enable-background:new 0 0 62 62;" version="1.1" viewBox="0 0 62 62" xml:space="preserve" xmlns="http://www.w3.org/2000/svg" xmlns:xlink="http://www.w3.org/1999/xlink"><style type="text/css">
	.st0{fill:#5FD2FF;}
	.st1{fill:#FFFFFF;}
	.st2{fill:#0082ED;}
	.st3{fill:#2BA8FC;}
	.st4{fill:#CECECE;}
	.st5{fill:#F92B75;}
	.st6{fill:#3BB0FF;}
	.st7{fill:#CE004F;}
	.st8{fill:none;stroke:#ED0C68;stroke-width:5;stroke-linecap:round;stroke-linejoin:round;stroke-miterlimit:10;}
	.st9{fill:#ED0C68;}
	.st10{fill:#78DED4;}
	.st11{fill:#1E5363;}
	.st12{fill:#54C8E8;}
	.st13{fill:#F4F4F4;}
	.st14{fill:#0C82EB;}
	.st15{fill:#00B2E3;}
	.st16{fill:#68A2B9;}
	.st17{fill:#A2C5D3;}
	.st18{fill:#76777A;}
	.st19{fill:#A7A8A9;}
	.st20{fill:#D6D6D6;}
	.st21{fill:none;stroke:#F92B75;stroke-width:5;stroke-linecap:round;stroke-linejoin:round;stroke-miterlimit:10;}
	.st22{fill:#FD4A5C;}
	.st23{fill:#FF8E9F;}
	.st24{fill:none;stroke:#F458A3;stroke-width:5;stroke-linecap:round;stroke-linejoin:round;stroke-miterlimit:10;}
	.st25{fill:#FFB259;}
	.st26{fill:#F32735;}
	.st27{fill:#FF9E18;}
	.st28{fill:#FFC27A;}
	.st29{fill:#FFC56D;}
	.st30{fill:none;stroke:#FD4A5C;stroke-width:5;stroke-linecap:round;stroke-linejoin:round;stroke-miterlimit:10;}
	.st31{fill:#0069A7;}
	.st32{fill:#D8D8D8;}
	.st33{fill:#8CB7C9;}
	.st34{fill:#65BAAF;}
	.st35{fill:#00AF9A;}
	.st36{fill:#00C4B3;}
	.st37{fill:#19D3C5;}
	.st38{fill:none;stroke:#54C8E8;stroke-width:5;stroke-linecap:round;stroke-linejoin:round;stroke-miterlimit:10;}
	.st39{fill:#8331A7;}
	.st40{fill:#009383;}
	.st41{fill:#98989A;}
	.st42{fill:#636569;}
	.st43{fill:#898A8D;}
	.st44{fill:#FFB548;}
	.st45{fill:none;stroke:#FFB548;stroke-width:5;stroke-linecap:round;stroke-linejoin:round;stroke-miterlimit:10;}
	.st46{fill:#ED40A9;}
	.st47{fill:#CB007B;}
	.st48{fill:#E50695;}
	.st49{fill:#D7282F;}
	.st50{fill:#E5E5E5;}
	.st51{fill:#FFA4B4;}
	.st52{fill:#F6A7D7;}
	.st53{fill:#F478C4;}
	.st54{fill:#E0C7E6;}
	.st55{fill:#B980D0;}
	.st56{fill:#D9B7E2;}
	.st57{fill:#BADF93;}
	.st58{fill:#4C9C2E;}
	.st59{fill:#3DAE2B;}
	.st60{fill:#AADA91;}
	.st61{fill:#6ABF4B;}
	.st62{fill:#EFB8A9;}
	.st63{fill:#FECB8B;}
	.st64{fill:#BDE8EF;}
	.st65{fill:#CCA1DD;}
	.st66{fill:#B2B2B2;}
	.st67{fill:none;stroke:#FF8300;stroke-width:5;stroke-linecap:round;stroke-linejoin:round;stroke-miterlimit:10;}
	.st68{fill:none;stroke:#FF9E18;stroke-width:5;stroke-linecap:round;stroke-linejoin:round;stroke-miterlimit:10;}
	.st69{fill:#96DAEA;}
	.st70{fill:#FF8300;}
	.st71{fill:none;stroke:#6ABF4B;stroke-width:5;stroke-linecap:round;stroke-linejoin:round;stroke-miterlimit:10;}
	.st72{fill:none;}
	.st73{fill:#444444;}
	.st74{fill:#FDCF85;}
</style><g><g><path class="st13" d="M31.78,2.5h-7.86H13.91h-1.03L9.87,53.4h11.05l1.15-19.49h9.71c8.67,0,15.7-7.03,15.7-15.7v0    C47.48,9.53,40.45,2.5,31.78,2.5z"/></g><path class="st14" d="M29.83,62h-9.27c-0.69,0-1.35-0.28-1.82-0.79c-0.47-0.5-0.72-1.17-0.68-1.86l2.53-42.72   c0.08-1.32,1.17-2.35,2.5-2.35h15.87c8.65,0,15.68,7.04,15.68,15.68s-7.03,15.68-15.68,15.68h-5.8l-0.83,14.01   C32.25,60.97,31.15,62,29.83,62z M23.21,57h4.26l0.83-14.01c0.08-1.32,1.17-2.35,2.5-2.35h8.15c5.89,0,10.68-4.79,10.68-10.68   s-4.79-10.68-10.68-10.68H25.44L23.21,57z"/><path class="st13" d="M38.95,16.78h-6.6h-8.4h-0.87L20.56,59.5h9.27l0.97-16.36h8.15c7.28,0,13.18-5.9,13.18-13.18v0   C52.13,22.68,46.23,16.78,38.95,16.78z"/><path class="st64" d="M47.4,19.85c-0.83,7.89-7.51,14.05-15.62,14.05h-9.71l1.01-17.12h15.87C42.17,16.78,45.11,17.94,47.4,19.85z"/><path class="st14" d="M29.83,62h-9.27c-0.69,0-1.35-0.28-1.82-0.79c-0.47-0.5-0.72-1.17-0.68-1.86l2.53-42.72   c0.08-1.32,1.17-2.35,2.5-2.35h15.87c8.65,0,15.68,7.04,15.68,15.68s-7.03,15.68-15.68,15.68h-5.8l-0.83,14.01   C32.25,60.97,31.15,62,29.83,62z M23.21,57h4.26l0.83-14.01c0.08-1.32,1.17-2.35,2.5-2.35h8.15c5.89,0,10.68-4.79,10.68-10.68   s-4.79-10.68-10.68-10.68H25.44L23.21,57z"/><path class="st15" d="M20.92,55.9H9.87c-0.69,0-1.35-0.28-1.82-0.79c-0.47-0.5-0.72-1.17-0.68-1.86l3.01-50.9   C10.46,1.03,11.56,0,12.88,0h18.9c10.04,0,18.2,8.17,18.2,18.2c0,10.04-8.17,18.2-18.2,18.2h-7.36l-1.01,17.14   C23.33,54.86,22.24,55.9,20.92,55.9z M12.52,50.9h6.04l1.01-17.14c0.08-1.32,1.17-2.35,2.5-2.35h9.71c7.28,0,13.2-5.92,13.2-13.2   S39.06,5,31.78,5H15.24L12.52,50.9z"/><path class="st31" d="M31.78,36.4h-9.71c-1.38,0-2.5-1.12-2.5-2.5s1.12-2.5,2.5-2.5h9.71c7.28,0,13.2-5.92,13.2-13.2   c0-1.38,1.12-2.5,2.5-2.5s2.5,1.12,2.5,2.5C49.98,28.24,41.82,36.4,31.78,36.4z"/></g></svg>