<svg version="1.1" xmlns="http://www.w3.org/2000/svg" xmlns:xlink="http://www.w3.org/1999/xlink" width="512px" height="512px" viewBox="0,0,256,256"><g fill="#0d6efd" fill-rule="nonzero" stroke="none" stroke-width="1" stroke-linecap="butt" stroke-linejoin="miter" stroke-miterlimit="10" stroke-dasharray="" stroke-dashoffset="0" font-family="none" font-weight="none" font-size="none" text-anchor="none" style="mix-blend-mode: normal"><g transform="translate(0.01211,-0.00353) scale(0.5,0.5)"><path d="M511.2,387l-23.25,100.8c-3.266,14.25 -15.79,24.22 -30.46,24.22c-252.29,-0.02 -457.49,-205.22 -457.49,-457.52c0,-14.66 9.969,-27.2 24.22,-30.45l100.8,-23.25c14.68,-3.402 29.68,4.218 35.78,18.12l46.52,108.5c5.438,12.78 1.77,27.67 -8.98,36.45l-53.84,43.23c33.98,69.22 90.26,125.5 159.5,159.5l44.08,-53.8c8.688,-10.78 23.69,-14.51 36.47,-8.975l108.5,46.51c13.05,6.865 21.55,22.065 18.15,36.665z"></path></g></g></svg>