<svg version="1.1" xmlns="http://www.w3.org/2000/svg" xmlns:xlink="http://www.w3.org/1999/xlink" width="496px" height="512px" viewBox="0,0,248,256"><g fill="#bfbfbf" fill-rule="nonzero" stroke="none" stroke-width="1" stroke-linecap="butt" stroke-linejoin="miter" stroke-miterlimit="10" stroke-dasharray="" stroke-dashoffset="0" font-family="none" font-weight="none" font-size="none" text-anchor="none" style="mix-blend-mode: normal"><g transform="translate(0.025,0) scale(0.5,0.5)"><path d="M336.5,160c-14.5,-89.3 -48.7,-152 -88.5,-152c-39.8,0 -74,62.7 -88.5,152zM152,256c0,22.2 1.2,43.5 3.3,64h185.3c2.1,-20.5 3.3,-41.8 3.3,-64c0,-22.2 -1.2,-43.5 -3.3,-64h-185.3c-2.1,20.5 -3.3,41.8 -3.3,64zM476.7,160c-28.6,-67.9 -86.5,-120.4 -158,-141.6c24.4,33.8 41.2,84.7 50,141.6zM177.2,18.4c-71.4,21.2 -129.4,73.7 -157.9,141.6h108c8.7,-56.9 25.5,-107.8 49.9,-141.6zM487.4,192h-114.7c2.1,21 3.3,42.5 3.3,64c0,21.5 -1.2,43 -3.3,64h114.6c5.5,-20.5 8.6,-41.8 8.6,-64c0,-22.2 -3.1,-43.5 -8.5,-64zM120,256c0,-21.5 1.2,-43 3.3,-64h-114.7c-5.4,20.5 -8.6,41.8 -8.6,64c0,22.2 3.2,43.5 8.6,64h114.6c-2,-21 -3.2,-42.5 -3.2,-64zM159.5,352c14.5,89.3 48.7,152 88.5,152c39.8,0 74,-62.7 88.5,-152zM318.8,493.6c71.4,-21.2 129.4,-73.7 158,-141.6h-108c-8.8,56.9 -25.6,107.8 -50,141.6zM19.3,352c28.6,67.9 86.5,120.4 158,141.6c-24.4,-33.8 -41.2,-84.7 -50,-141.6z"></path></g></g></svg>